<svg xmlns="http://www.w3.org/2000/svg" xmlns:xlink="http://www.w3.org/1999/xlink" width="555.582" height="651.382" viewBox="0 0 555.582 651.382"><defs><style>.a{fill:#5597c4;}.b{fill:#e67e22;}.c{fill:#e74c3c;}.d{fill:#f4d03f;}.e{filter:url(#a);}</style><filter id="a" x="0" y="0" width="555.582" height="651.382" filterUnits="userSpaceOnUse"><feOffset dx="1.376" input="SourceAlpha"/><feGaussianBlur result="b"/><feFlood flood-color="#9cbfd3" flood-opacity="0.251"/><feComposite operator="in" in2="b"/><feComposite in="SourceGraphic"/></filter></defs><g transform="translate(-205.135 -10.734)"><g class="e" transform="matrix(1, 0, 0, 1, 205.13, 10.73)"><path class="a" d="M1955.357,182.529l-4.591,10.873L1790.455,569.438l-25.4,59.434-21.283,50.06H1641.861l-43.315-18.469-19.689-8.434h-.089l-76.031-32.347-86.44-36.843a21.83,21.83,0,0,1-12-27.748,3.01,3.01,0,0,1,.375-1.219l40.685-95.528,149.908-351.565L1623.3,40.967A21.735,21.735,0,0,1,1642.89,27.56h.1a21.426,21.426,0,0,1,9.183,1.785l58.222,24.839,76.876,32.722,3.188,1.315,153.279,65.341A22.028,22.028,0,0,1,1955.357,182.529Z" transform="translate(-1402.93 -27.55)"/></g><g transform="translate(675.652 155.121)"><rect class="b" width="23.341" height="41.947" transform="translate(9.771 43.183) rotate(-64.721)"/><path class="c" d="M1501.37,71.7a26.645,26.645,0,0,1-14.621-18.17,26.677,26.677,0,1,0,37.934,17.911A26.624,26.624,0,0,1,1501.37,71.7Z" transform="translate(-1471.999 -20.903)"/><path class="d" d="M1512.144,51.3a26.67,26.67,0,0,1,.532,47.982,26.677,26.677,0,0,0-31.952-20.057,27.038,27.038,0,0,0-5.982,2.146,26.671,26.671,0,0,1,37.4-30.071Z" transform="translate(-1459.991 -48.744)"/></g></g></svg>