<svg xmlns="http://www.w3.org/2000/svg" xmlns:xlink="http://www.w3.org/1999/xlink" width="573.078" height="666.016" viewBox="0 0 573.078 666.016"><defs><style>.a{fill:#f1b242;}.b{fill:#fff;}.c{filter:url(#a);}</style><filter id="a" x="0" y="0" width="573.078" height="666.016" filterUnits="userSpaceOnUse"><feOffset dx="-1.376" input="SourceAlpha"/><feGaussianBlur result="b"/><feFlood flood-color="#e9e2ed" flood-opacity="0.251"/><feComposite operator="in" in2="b"/><feComposite in="SourceGraphic"/></filter></defs><g transform="translate(1.376 -5.491)"><g class="c" transform="matrix(1, 0, 0, 1, -1.38, 5.49)"><path class="a" d="M539.17,556.3a19.644,19.644,0,0,1-3.379,1.785l-105.373,43.4-66.376,27.278-20.247,8.346h-.1l-24.465,10.124H205.89l-35.065-85.309L162.2,541.017,1.7,151.11a21.853,21.853,0,0,1,11.908-28.682L69.295,99.456l92.9-38.247,87.469-36.094,57-23.443A21.78,21.78,0,0,1,331.326,7.3a19.076,19.076,0,0,1,4.121,6.377l25.317,61.4,30.651,74.531L516.572,453.548,547.795,529.3A22.053,22.053,0,0,1,539.17,556.3Z" transform="translate(1.38 19.18) rotate(-2)"/></g><path class="b" d="M-57.409,0l2.992-25.262h6.188l5.2,17.748,5.2-17.748h6.12L-28.679,0h-6.358l-1.938-16.252.952.034L-40,0h-6.188L-50.2-16.218l1.054-.034L-51.051,0Zm37.774.2A13.537,13.537,0,0,1-21.59.034,6.716,6.716,0,0,1-23.8-.714,4.651,4.651,0,0,1-25.585-2.5,6.515,6.515,0,0,1-26.3-5.814V-19.006a7.156,7.156,0,0,1,.578-3.06,5.072,5.072,0,0,1,1.5-1.921,5.685,5.685,0,0,1,2.04-.986,8.711,8.711,0,0,1,2.176-.289q2.856,0,4.913.085t3.57.187q1.513.1,2.669.238v5.576h-9.112a1.952,1.952,0,0,0-1.292.374A1.388,1.388,0,0,0-19.7-17.68v2.108l9.146.34V-10l-9.146.34v1.9a2.33,2.33,0,0,0,.187,1,1.251,1.251,0,0,0,.527.578,1.526,1.526,0,0,0,.748.187h9.384V-.408q-1.462.2-3.332.34T-16,.136Q-17.935.2-19.635.2ZM-.731,0V-19.346H-7.089v-5.916H12.223v5.916H5.865V0ZM14.637,0V-25.262H25.415a10.862,10.862,0,0,1,3.06.408,5.825,5.825,0,0,1,2.414,1.377,6.363,6.363,0,0,1,1.581,2.6,12.828,12.828,0,0,1,.561,4.114,11.986,11.986,0,0,1-.272,2.72,7.264,7.264,0,0,1-.731,1.955,5.138,5.138,0,0,1-1.088,1.343,8.483,8.483,0,0,1-1.343.952L33.983,0h-6.7L23.749-8.7H21.233V0Zm6.6-13.94h2.992a2.706,2.706,0,0,0,.952-.153,1.674,1.674,0,0,0,.7-.493,2.144,2.144,0,0,0,.425-.867,5.168,5.168,0,0,0,.136-1.275,4.961,4.961,0,0,0-.136-1.258,1.737,1.737,0,0,0-.425-.8,1.754,1.754,0,0,0-.7-.425,3.014,3.014,0,0,0-.952-.136H21.233ZM46.563.2a18.789,18.789,0,0,1-4.709-.527A7.27,7.27,0,0,1,38.471-2.21,8.511,8.511,0,0,1,36.431-6.1a25.919,25.919,0,0,1-.68-6.545,25.919,25.919,0,0,1,.68-6.545,8.511,8.511,0,0,1,2.04-3.893,7.27,7.27,0,0,1,3.383-1.887,18.79,18.79,0,0,1,4.709-.527,18.79,18.79,0,0,1,4.709.527,7.27,7.27,0,0,1,3.383,1.887,8.511,8.511,0,0,1,2.04,3.893,25.919,25.919,0,0,1,.68,6.545A25.919,25.919,0,0,1,56.7-6.1a8.511,8.511,0,0,1-2.04,3.893A7.27,7.27,0,0,1,51.272-.323,18.789,18.789,0,0,1,46.563.2Zm0-5.916a6.1,6.1,0,0,0,2.108-.306,2.479,2.479,0,0,0,1.275-1.054,5.515,5.515,0,0,0,.646-2.108,26.3,26.3,0,0,0,.187-3.468,27.286,27.286,0,0,0-.187-3.57,5.356,5.356,0,0,0-.646-2.091,2.336,2.336,0,0,0-1.275-1,6.8,6.8,0,0,0-2.108-.272,6.834,6.834,0,0,0-2.091.272,2.334,2.334,0,0,0-1.292,1,5.356,5.356,0,0,0-.646,2.091,27.286,27.286,0,0,0-.187,3.57,26.3,26.3,0,0,0,.187,3.468,5.515,5.515,0,0,0,.646,2.108,2.474,2.474,0,0,0,1.292,1.054A6.127,6.127,0,0,0,46.563-5.712Z" transform="matrix(-0.369, -0.929, 0.929, -0.369, 70.009, 210.361)"/></g></svg>