<svg xmlns="http://www.w3.org/2000/svg" xmlns:xlink="http://www.w3.org/1999/xlink" width="497.112" height="670.174" viewBox="0 0 497.112 670.174"><defs><style>.a{fill:#70b756;}.b{fill:#fff;}.c{filter:url(#a);}</style><filter id="a" x="0" y="0" width="497.112" height="670.174" filterUnits="userSpaceOnUse"><feOffset dx="-1.376" input="SourceAlpha"/><feGaussianBlur result="b"/><feFlood flood-color="#a9d3cb" flood-opacity="0.251"/><feComposite operator="in" in2="b"/><feComposite in="SourceGraphic"/></filter></defs><g transform="translate(-70.403)"><g class="c" transform="matrix(1, 0, 0, 1, 70.4, 0)"><path class="a" d="M455.866,588.152,364.18,608.311l-86.065,18.844h-.088l-19.689,4.408-102.654,22.5H131.307a21.812,21.812,0,0,1-11.248-14.716l-15.471-70.594-8.625-39.187L3.058,106.28.523,94.657A22,22,0,0,1,17.309,68.408l78.653-17.25,87.469-19.219,81.657-17.815L326.867.533a21.879,21.879,0,0,1,15.281,2.153h.1a22.164,22.164,0,0,1,10.873,14.627l15.847,72,81.371,371.063L472.646,561.9c.1.375.191.845.286,1.219A22.048,22.048,0,0,1,455.866,588.152Z" transform="translate(1.38 16.51) rotate(-2)"/></g><path class="b" d="M-75.312,0V-23.776h10.144a10.224,10.224,0,0,1,2.88.384,5.482,5.482,0,0,1,2.272,1.3,5.989,5.989,0,0,1,1.488,2.448A12.073,12.073,0,0,1-58-15.776a11.281,11.281,0,0,1-.256,2.56,6.836,6.836,0,0,1-.688,1.84,4.836,4.836,0,0,1-1.024,1.264,7.984,7.984,0,0,1-1.264.9L-57.1,0h-6.3l-3.328-8.192H-69.1V0ZM-69.1-13.12h2.816a2.546,2.546,0,0,0,.9-.144,1.575,1.575,0,0,0,.656-.464,2.018,2.018,0,0,0,.4-.816,4.864,4.864,0,0,0,.128-1.2,4.669,4.669,0,0,0-.128-1.184,1.634,1.634,0,0,0-.4-.752,1.651,1.651,0,0,0-.656-.4,2.837,2.837,0,0,0-.9-.128H-69.1ZM-48.56.192A12.741,12.741,0,0,1-50.4.032a6.321,6.321,0,0,1-2.08-.7,4.377,4.377,0,0,1-1.68-1.68,6.132,6.132,0,0,1-.672-3.12V-17.888a6.735,6.735,0,0,1,.544-2.88,4.773,4.773,0,0,1,1.408-1.808,5.35,5.35,0,0,1,1.92-.928,8.2,8.2,0,0,1,2.048-.272q2.688,0,4.624.08t3.36.176q1.424.1,2.512.224v5.248h-8.576a1.837,1.837,0,0,0-1.216.352,1.306,1.306,0,0,0-.416,1.056v1.984l8.608.32v4.928l-8.608.32V-7.3a2.193,2.193,0,0,0,.176.944,1.178,1.178,0,0,0,.5.544,1.437,1.437,0,0,0,.7.176h8.832V-.384q-1.376.192-3.136.32t-3.584.192Q-46.96.192-48.56.192ZM-31.664,0-37.1-23.776h6.432l2.944,14.464,3.552-14.464h5.568l3.52,14.464,2.944-14.464h6.432L-11.152,0H-17.36l-4.032-14.528L-25.456,0ZM-6.512,0,.528-23.776H8.272L15.312,0H8.88L7.92-3.776H.784L-.144,0ZM2.224-9.344H6.48L4.336-18.5ZM17.232,0V-23.776H27.376a10.224,10.224,0,0,1,2.88.384,5.482,5.482,0,0,1,2.272,1.3,5.989,5.989,0,0,1,1.488,2.448,12.073,12.073,0,0,1,.528,3.872,11.281,11.281,0,0,1-.256,2.56,6.836,6.836,0,0,1-.688,1.84,4.836,4.836,0,0,1-1.024,1.264,7.984,7.984,0,0,1-1.264.9L35.44,0h-6.3L25.808-8.192H23.44V0ZM23.44-13.12h2.816a2.546,2.546,0,0,0,.9-.144,1.575,1.575,0,0,0,.656-.464,2.018,2.018,0,0,0,.4-.816,4.864,4.864,0,0,0,.128-1.2,4.669,4.669,0,0,0-.128-1.184,1.634,1.634,0,0,0-.4-.752,1.651,1.651,0,0,0-.656-.4,2.836,2.836,0,0,0-.9-.128H23.44ZM37.712,0V-23.776h10.5a8.8,8.8,0,0,1,4.256.912,6.758,6.758,0,0,1,2.624,2.544,11.325,11.325,0,0,1,1.344,3.792,26.62,26.62,0,0,1,.384,4.656,20.364,20.364,0,0,1-.944,6.8,7.362,7.362,0,0,1-2.848,3.84A8.7,8.7,0,0,1,48.208,0ZM43.92-5.568h3.648a2.524,2.524,0,0,0,1.84-.64,3.8,3.8,0,0,0,.928-2.032,19.613,19.613,0,0,0,.272-3.632,21.721,21.721,0,0,0-.208-3.376,5.311,5.311,0,0,0-.608-1.9,1.955,1.955,0,0,0-.96-.848,3.611,3.611,0,0,0-1.264-.208H43.92ZM67.184.192q-1.056,0-2.064-.064T63.136-.064q-.976-.128-1.872-.288T59.536-.736V-5.664q1.088.1,2.352.16t2.56.1q1.3.032,2.416.032a8.117,8.117,0,0,0,1.76-.16,2.131,2.131,0,0,0,1.056-.512,1.3,1.3,0,0,0,.352-.96v-.384a1.21,1.21,0,0,0-.5-1.056A1.966,1.966,0,0,0,68.368-8.8h-1.7a8.487,8.487,0,0,1-5.632-1.632q-1.92-1.632-1.92-5.472V-16.96a6.432,6.432,0,0,1,2.112-5.264,9.324,9.324,0,0,1,6.08-1.744,26.317,26.317,0,0,1,2.832.144q1.328.144,2.5.352t2.1.432v4.928q-1.472-.128-3.312-.208T68.08-18.4a9,9,0,0,0-1.6.128,2,2,0,0,0-1.088.512,1.517,1.517,0,0,0-.384,1.12v.32A1.475,1.475,0,0,0,65.52-15.1a2.459,2.459,0,0,0,1.568.416H69.2a7.443,7.443,0,0,1,3.728.848,5.544,5.544,0,0,1,2.24,2.3,7.113,7.113,0,0,1,.752,3.312v1.056a8.439,8.439,0,0,1-1.056,4.64,5.184,5.184,0,0,1-3.008,2.16A17.088,17.088,0,0,1,67.184.192Z" transform="matrix(-0.207, -0.978, 0.978, -0.207, 140.978, 190.308)"/></g></svg>