<svg xmlns="http://www.w3.org/2000/svg" xmlns:xlink="http://www.w3.org/1999/xlink" width="615.378" height="629.21" viewBox="0 0 615.378 629.21"><defs><style>.a{fill:#e7927f;}.b{fill:#0066b3;}.c{fill:#faa634;}.d{filter:url(#a);}</style><filter id="a" x="0" y="0" width="615.378" height="629.21" filterUnits="userSpaceOnUse"><feOffset dx="1.376" input="SourceAlpha"/><feGaussianBlur result="b"/><feFlood flood-color="#ead6c1" flood-opacity="0.251"/><feComposite operator="in" in2="b"/><feComposite in="SourceGraphic"/></filter></defs><g transform="translate(-199.356 -32.906)"><g class="d" transform="matrix(1, 0, 0, 1, 199.36, 32.91)"><path class="a" d="M2012.507,237.864,1795.384,571.048l-25.4,38.908-32.532,50.06H1598.6l-15.376-10.124h-.1L1564.01,637.52l-56.342-36.755-95.534-62.248a16.484,16.484,0,0,1-2.9-2.344,21.957,21.957,0,0,1-3.562-28.218l44.622-68.529L1630.85,162.392l43.785-67.126L1710.068,40.8a18.638,18.638,0,0,1,5.253-5.532,21.984,21.984,0,0,1,25.221-.933L1792.2,67.988l3.188,2.064,160.311,104.432,50.435,32.905A22.046,22.046,0,0,1,2012.507,237.864Z" transform="translate(-1402.09 -30.81)"/></g><g transform="translate(744.415 228.751)"><path class="b" d="M1505.657,79.887l-3.361,5.175-17.777-16.144,3.361-5.175Z" transform="translate(-1467.986 -35.19)"/><path class="b" d="M1493.695,70.372l10.471,13.809-3.325-1.328h0l-10.07-4.06a2.64,2.64,0,0,0-3.385,1.294l-5.294,8.155.272.313a23.033,23.033,0,0,1,5.792-3.938l20.185,6.717,3.5-5.389L1497.312,64.8Z" transform="translate(-1482.092 -29.053)"/><path class="b" d="M1510.008,73.075l3.086-4.755-22.564-8.768-2.7,4.163a2.836,2.836,0,0,0-.068,3.352l13.38,19.668,3.509-5.4-2.256-3,4.271-6.581Zm-10.73,1.124-5.668-7.549,8.428,3.3Z" transform="translate(-1452.092 -59.552)"/><path class="b" d="M1495.579,65.037l-3.788-3.509a17.8,17.8,0,0,0-3.89,4.088c-1.669,2.568-4.51,9.395.947,12.944,5.137,3.331,9.852-3.781,12.549-2.03s-1.955,7.855-5.035,8.87l3.966,3.665a17.311,17.311,0,0,0,4.918-5.11c2.29-3.529,3.924-10.049-1.055-13.278-5.165-3.359-10.342,3.549-12.583,2.092S1492.922,66.46,1495.579,65.037Z" transform="translate(-1461.366 -48.066)"/><path class="c" d="M1500.841,71.085l-10.07-4.06a2.64,2.64,0,0,0-3.385,1.294l-5.294,8.155.272.313a23.928,23.928,0,0,1,8.851-5.178A18.505,18.505,0,0,1,1500.841,71.085Z" transform="translate(-1482.092 -17.285)"/></g></g></svg>